<mxfile host="app.diagrams.net" agent="Mozilla/5.0 (Windows NT 10.0; Win64; x64) AppleWebKit/537.36 (KHTML, like Gecko) Chrome/130.0.0.0 Safari/537.36" version="24.8.4">
  <diagram name="Страница — 1" id="3P0X6I7frlhAt5mptEmb">
    <mxGraphModel dx="619" dy="641" grid="0" gridSize="10" guides="1" tooltips="1" connect="1" arrows="1" fold="1" page="1" pageScale="1" pageWidth="827" pageHeight="1169" math="0" shadow="0">
      <root>
        <mxCell id="0" />
        <mxCell id="1" parent="0" />
        <mxCell id="AOl-o9mszF_kFIoR1wRg-3" value="" style="edgeStyle=orthogonalEdgeStyle;rounded=0;orthogonalLoop=1;jettySize=auto;html=1;" parent="1" source="AOl-o9mszF_kFIoR1wRg-1" target="AOl-o9mszF_kFIoR1wRg-2" edge="1">
          <mxGeometry relative="1" as="geometry" />
        </mxCell>
        <mxCell id="AOl-o9mszF_kFIoR1wRg-1" value="Start" style="ellipse;whiteSpace=wrap;html=1;fillColor=#d5e8d4;strokeColor=#82b366;" parent="1" vertex="1">
          <mxGeometry x="70" width="120" height="80" as="geometry" />
        </mxCell>
        <mxCell id="AOl-o9mszF_kFIoR1wRg-5" value="" style="edgeStyle=orthogonalEdgeStyle;rounded=0;orthogonalLoop=1;jettySize=auto;html=1;" parent="1" source="AOl-o9mszF_kFIoR1wRg-2" target="AOl-o9mszF_kFIoR1wRg-4" edge="1">
          <mxGeometry relative="1" as="geometry" />
        </mxCell>
        <mxCell id="AOl-o9mszF_kFIoR1wRg-2" value="string Ternary" style="shape=process;whiteSpace=wrap;html=1;backgroundOutline=1;" parent="1" vertex="1">
          <mxGeometry x="70" y="110" width="120" height="60" as="geometry" />
        </mxCell>
        <mxCell id="AOl-o9mszF_kFIoR1wRg-7" value="" style="edgeStyle=orthogonalEdgeStyle;rounded=0;orthogonalLoop=1;jettySize=auto;html=1;" parent="1" source="AOl-o9mszF_kFIoR1wRg-4" target="AOl-o9mszF_kFIoR1wRg-6" edge="1">
          <mxGeometry relative="1" as="geometry" />
        </mxCell>
        <mxCell id="AOl-o9mszF_kFIoR1wRg-4" value="convertToTernary" style="shape=process;whiteSpace=wrap;html=1;backgroundOutline=1;" parent="1" vertex="1">
          <mxGeometry x="70" y="190" width="120" height="60" as="geometry" />
        </mxCell>
        <mxCell id="AOl-o9mszF_kFIoR1wRg-9" value="" style="edgeStyle=orthogonalEdgeStyle;rounded=0;orthogonalLoop=1;jettySize=auto;html=1;" parent="1" source="AOl-o9mszF_kFIoR1wRg-6" target="AOl-o9mszF_kFIoR1wRg-8" edge="1">
          <mxGeometry relative="1" as="geometry" />
        </mxCell>
        <mxCell id="AOl-o9mszF_kFIoR1wRg-6" value="&lt;div&gt;convertToTernary(3, 1, 2, 3);&lt;/div&gt;&lt;div&gt;convertToTernary(4, 4, 5, 6, 7);&lt;/div&gt;&lt;div&gt;convertToTernary(7, 8, 9, 10, 11, 12, 13, 14);&lt;/div&gt;" style="whiteSpace=wrap;html=1;" parent="1" vertex="1">
          <mxGeometry y="270" width="260" height="100" as="geometry" />
        </mxCell>
        <mxCell id="AOl-o9mszF_kFIoR1wRg-8" value="End" style="ellipse;whiteSpace=wrap;html=1;fillColor=#f8cecc;strokeColor=#b85450;" parent="1" vertex="1">
          <mxGeometry x="70" y="395" width="120" height="80" as="geometry" />
        </mxCell>
        <mxCell id="AOl-o9mszF_kFIoR1wRg-12" value="" style="edgeStyle=orthogonalEdgeStyle;rounded=0;orthogonalLoop=1;jettySize=auto;html=1;" parent="1" source="AOl-o9mszF_kFIoR1wRg-10" target="AOl-o9mszF_kFIoR1wRg-11" edge="1">
          <mxGeometry relative="1" as="geometry" />
        </mxCell>
        <mxCell id="AOl-o9mszF_kFIoR1wRg-10" value="strang ternary" style="ellipse;whiteSpace=wrap;html=1;fillColor=#d5e8d4;strokeColor=#82b366;" parent="1" vertex="1">
          <mxGeometry x="399" width="120" height="80" as="geometry" />
        </mxCell>
        <mxCell id="AOl-o9mszF_kFIoR1wRg-14" value="" style="edgeStyle=orthogonalEdgeStyle;rounded=0;orthogonalLoop=1;jettySize=auto;html=1;" parent="1" source="AOl-o9mszF_kFIoR1wRg-11" target="AOl-o9mszF_kFIoR1wRg-13" edge="1">
          <mxGeometry relative="1" as="geometry" />
        </mxCell>
        <mxCell id="AOl-o9mszF_kFIoR1wRg-11" value="string ternary = &quot;&quot;" style="rounded=0;whiteSpace=wrap;html=1;" parent="1" vertex="1">
          <mxGeometry x="399" y="100" width="120" height="30" as="geometry" />
        </mxCell>
        <mxCell id="AOl-o9mszF_kFIoR1wRg-16" style="edgeStyle=orthogonalEdgeStyle;rounded=0;orthogonalLoop=1;jettySize=auto;html=1;exitX=0;exitY=0.5;exitDx=0;exitDy=0;entryX=0.5;entryY=0;entryDx=0;entryDy=0;" parent="1" source="AOl-o9mszF_kFIoR1wRg-13" target="AOl-o9mszF_kFIoR1wRg-15" edge="1">
          <mxGeometry relative="1" as="geometry" />
        </mxCell>
        <mxCell id="AOl-o9mszF_kFIoR1wRg-23" style="edgeStyle=orthogonalEdgeStyle;rounded=0;orthogonalLoop=1;jettySize=auto;html=1;exitX=0.5;exitY=1;exitDx=0;exitDy=0;entryX=0.5;entryY=0;entryDx=0;entryDy=0;" parent="1" source="AOl-o9mszF_kFIoR1wRg-13" target="AOl-o9mszF_kFIoR1wRg-22" edge="1">
          <mxGeometry relative="1" as="geometry" />
        </mxCell>
        <mxCell id="AOl-o9mszF_kFIoR1wRg-13" value="if (number == 0)" style="rhombus;whiteSpace=wrap;html=1;" parent="1" vertex="1">
          <mxGeometry x="389" y="160" width="140" height="80" as="geometry" />
        </mxCell>
        <mxCell id="AOl-o9mszF_kFIoR1wRg-15" value="return &quot;0&quot;" style="rounded=0;whiteSpace=wrap;html=1;" parent="1" vertex="1">
          <mxGeometry x="290" y="250" width="120" height="30" as="geometry" />
        </mxCell>
        <mxCell id="AOl-o9mszF_kFIoR1wRg-17" value="Yes" style="text;html=1;align=center;verticalAlign=middle;resizable=0;points=[];autosize=1;strokeColor=none;fillColor=none;" parent="1" vertex="1">
          <mxGeometry x="349" y="180" width="40" height="30" as="geometry" />
        </mxCell>
        <mxCell id="AOl-o9mszF_kFIoR1wRg-21" value="No" style="text;html=1;align=center;verticalAlign=middle;resizable=0;points=[];autosize=1;strokeColor=none;fillColor=none;" parent="1" vertex="1">
          <mxGeometry x="450" y="240" width="40" height="30" as="geometry" />
        </mxCell>
        <mxCell id="AOl-o9mszF_kFIoR1wRg-27" style="edgeStyle=orthogonalEdgeStyle;rounded=0;orthogonalLoop=1;jettySize=auto;html=1;exitX=0;exitY=0.5;exitDx=0;exitDy=0;entryX=0.5;entryY=0;entryDx=0;entryDy=0;" parent="1" source="AOl-o9mszF_kFIoR1wRg-22" target="AOl-o9mszF_kFIoR1wRg-24" edge="1">
          <mxGeometry relative="1" as="geometry" />
        </mxCell>
        <mxCell id="AOl-o9mszF_kFIoR1wRg-30" style="edgeStyle=orthogonalEdgeStyle;rounded=0;orthogonalLoop=1;jettySize=auto;html=1;exitX=1;exitY=0.5;exitDx=0;exitDy=0;entryX=0.5;entryY=0;entryDx=0;entryDy=0;" parent="1" source="AOl-o9mszF_kFIoR1wRg-22" target="AOl-o9mszF_kFIoR1wRg-29" edge="1">
          <mxGeometry relative="1" as="geometry" />
        </mxCell>
        <mxCell id="AOl-o9mszF_kFIoR1wRg-22" value="while (number &amp;gt; 0)" style="rhombus;whiteSpace=wrap;html=1;" parent="1" vertex="1">
          <mxGeometry x="420" y="300" width="131" height="80" as="geometry" />
        </mxCell>
        <mxCell id="HAqMp4xPrJ0fO4TsbNuR-1" style="edgeStyle=orthogonalEdgeStyle;rounded=0;orthogonalLoop=1;jettySize=auto;html=1;exitX=0.5;exitY=1;exitDx=0;exitDy=0;entryX=0.5;entryY=0;entryDx=0;entryDy=0;" edge="1" parent="1" source="AOl-o9mszF_kFIoR1wRg-24" target="AOl-o9mszF_kFIoR1wRg-22">
          <mxGeometry relative="1" as="geometry">
            <Array as="points">
              <mxPoint x="375" y="450" />
              <mxPoint x="699" y="450" />
              <mxPoint x="699" y="280" />
              <mxPoint x="486" y="280" />
            </Array>
          </mxGeometry>
        </mxCell>
        <mxCell id="AOl-o9mszF_kFIoR1wRg-24" value="&lt;div&gt;ternary = to_string(number % 3) + ternary;&lt;/div&gt;&lt;div&gt;number /= 3;&lt;/div&gt;" style="rounded=0;whiteSpace=wrap;html=1;" parent="1" vertex="1">
          <mxGeometry x="259" y="390" width="231" height="40" as="geometry" />
        </mxCell>
        <mxCell id="AOl-o9mszF_kFIoR1wRg-28" value="Yes" style="text;html=1;align=center;verticalAlign=middle;resizable=0;points=[];autosize=1;strokeColor=none;fillColor=none;" parent="1" vertex="1">
          <mxGeometry x="380" y="320" width="40" height="30" as="geometry" />
        </mxCell>
        <mxCell id="AOl-o9mszF_kFIoR1wRg-29" value="return ternary" style="rounded=0;whiteSpace=wrap;html=1;" parent="1" vertex="1">
          <mxGeometry x="570" y="380" width="120" height="60" as="geometry" />
        </mxCell>
        <mxCell id="AOl-o9mszF_kFIoR1wRg-31" value="No" style="text;html=1;align=center;verticalAlign=middle;resizable=0;points=[];autosize=1;strokeColor=none;fillColor=none;" parent="1" vertex="1">
          <mxGeometry x="570" y="320" width="40" height="30" as="geometry" />
        </mxCell>
        <mxCell id="AOl-o9mszF_kFIoR1wRg-35" value="" style="edgeStyle=orthogonalEdgeStyle;rounded=0;orthogonalLoop=1;jettySize=auto;html=1;" parent="1" source="AOl-o9mszF_kFIoR1wRg-33" target="AOl-o9mszF_kFIoR1wRg-34" edge="1">
          <mxGeometry relative="1" as="geometry" />
        </mxCell>
        <mxCell id="AOl-o9mszF_kFIoR1wRg-33" value="convertToTernary(int count, ...)" style="ellipse;whiteSpace=wrap;html=1;" parent="1" vertex="1">
          <mxGeometry x="930" width="188" height="83" as="geometry" />
        </mxCell>
        <mxCell id="HAqMp4xPrJ0fO4TsbNuR-4" value="" style="edgeStyle=orthogonalEdgeStyle;rounded=0;orthogonalLoop=1;jettySize=auto;html=1;" edge="1" parent="1" source="AOl-o9mszF_kFIoR1wRg-34" target="HAqMp4xPrJ0fO4TsbNuR-3">
          <mxGeometry relative="1" as="geometry" />
        </mxCell>
        <mxCell id="AOl-o9mszF_kFIoR1wRg-34" value="&lt;div&gt;va_list args;&lt;/div&gt;&lt;div&gt;va_start(args, count);&lt;/div&gt;" style="rounded=0;whiteSpace=wrap;html=1;" parent="1" vertex="1">
          <mxGeometry x="956.5" y="104" width="135" height="40" as="geometry" />
        </mxCell>
        <mxCell id="HAqMp4xPrJ0fO4TsbNuR-6" value="" style="edgeStyle=orthogonalEdgeStyle;rounded=0;orthogonalLoop=1;jettySize=auto;html=1;" edge="1" parent="1" source="HAqMp4xPrJ0fO4TsbNuR-3" target="HAqMp4xPrJ0fO4TsbNuR-5">
          <mxGeometry relative="1" as="geometry" />
        </mxCell>
        <mxCell id="HAqMp4xPrJ0fO4TsbNuR-3" value="Перетворення чисел у трійкову систему:" style="shape=parallelogram;perimeter=parallelogramPerimeter;whiteSpace=wrap;html=1;fixedSize=1;" vertex="1" parent="1">
          <mxGeometry x="883" y="170" width="282" height="33" as="geometry" />
        </mxCell>
        <mxCell id="HAqMp4xPrJ0fO4TsbNuR-8" value="" style="edgeStyle=orthogonalEdgeStyle;rounded=0;orthogonalLoop=1;jettySize=auto;html=1;" edge="1" parent="1" source="HAqMp4xPrJ0fO4TsbNuR-5" target="HAqMp4xPrJ0fO4TsbNuR-7">
          <mxGeometry relative="1" as="geometry" />
        </mxCell>
        <mxCell id="HAqMp4xPrJ0fO4TsbNuR-15" style="edgeStyle=orthogonalEdgeStyle;rounded=0;orthogonalLoop=1;jettySize=auto;html=1;exitX=0;exitY=0.5;exitDx=0;exitDy=0;entryX=0.5;entryY=0;entryDx=0;entryDy=0;" edge="1" parent="1" source="HAqMp4xPrJ0fO4TsbNuR-5" target="HAqMp4xPrJ0fO4TsbNuR-14">
          <mxGeometry relative="1" as="geometry" />
        </mxCell>
        <mxCell id="HAqMp4xPrJ0fO4TsbNuR-5" value="for (int i = 0; i &amp;lt; count; i++)" style="rhombus;whiteSpace=wrap;html=1;" vertex="1" parent="1">
          <mxGeometry x="932" y="240" width="184" height="80" as="geometry" />
        </mxCell>
        <mxCell id="HAqMp4xPrJ0fO4TsbNuR-10" value="" style="edgeStyle=orthogonalEdgeStyle;rounded=0;orthogonalLoop=1;jettySize=auto;html=1;" edge="1" parent="1" source="HAqMp4xPrJ0fO4TsbNuR-7" target="HAqMp4xPrJ0fO4TsbNuR-9">
          <mxGeometry relative="1" as="geometry" />
        </mxCell>
        <mxCell id="HAqMp4xPrJ0fO4TsbNuR-7" value="int number = va_arg(args, int)" style="rounded=0;whiteSpace=wrap;html=1;" vertex="1" parent="1">
          <mxGeometry x="934.5" y="342" width="179" height="30" as="geometry" />
        </mxCell>
        <mxCell id="HAqMp4xPrJ0fO4TsbNuR-13" style="edgeStyle=orthogonalEdgeStyle;rounded=0;orthogonalLoop=1;jettySize=auto;html=1;exitX=0.5;exitY=1;exitDx=0;exitDy=0;" edge="1" parent="1" source="HAqMp4xPrJ0fO4TsbNuR-9">
          <mxGeometry relative="1" as="geometry">
            <mxPoint x="1024" y="223" as="targetPoint" />
            <Array as="points">
              <mxPoint x="1024" y="446" />
              <mxPoint x="1194" y="446" />
              <mxPoint x="1194" y="223" />
            </Array>
          </mxGeometry>
        </mxCell>
        <mxCell id="HAqMp4xPrJ0fO4TsbNuR-9" value="cout &amp;lt;&amp;lt; number &amp;lt;&amp;lt; &quot; -&amp;gt; &quot; &amp;lt;&amp;lt; Ternary(number) &amp;lt;&amp;lt; &quot;&amp;nbsp; &quot;" style="shape=parallelogram;perimeter=parallelogramPerimeter;whiteSpace=wrap;html=1;fixedSize=1;" vertex="1" parent="1">
          <mxGeometry x="871.5" y="395" width="305" height="31" as="geometry" />
        </mxCell>
        <mxCell id="HAqMp4xPrJ0fO4TsbNuR-17" value="" style="edgeStyle=orthogonalEdgeStyle;rounded=0;orthogonalLoop=1;jettySize=auto;html=1;" edge="1" parent="1" source="HAqMp4xPrJ0fO4TsbNuR-14" target="HAqMp4xPrJ0fO4TsbNuR-16">
          <mxGeometry relative="1" as="geometry" />
        </mxCell>
        <mxCell id="HAqMp4xPrJ0fO4TsbNuR-14" value="va_end(args)" style="rounded=0;whiteSpace=wrap;html=1;" vertex="1" parent="1">
          <mxGeometry x="815" y="460" width="87" height="28" as="geometry" />
        </mxCell>
        <mxCell id="HAqMp4xPrJ0fO4TsbNuR-16" value="endl" style="shape=parallelogram;perimeter=parallelogramPerimeter;whiteSpace=wrap;html=1;fixedSize=1;" vertex="1" parent="1">
          <mxGeometry x="811" y="498" width="95" height="23" as="geometry" />
        </mxCell>
      </root>
    </mxGraphModel>
  </diagram>
</mxfile>
